<?xml version="1.0" encoding="iso-8859-1"?>
<!-- Uploaded to: SVG Repo, www.svgrepo.com, Generator: SVG Repo Mixer Tools -->
<!DOCTYPE svg PUBLIC "-//W3C//DTD SVG 1.1//EN" "http://www.w3.org/Graphics/SVG/1.1/DTD/svg11.dtd">
<svg fill="#000000" version="1.1" id="Capa_1" xmlns="http://www.w3.org/2000/svg" xmlns:xlink="http://www.w3.org/1999/xlink" 
	 width="800px" height="800px" viewBox="0 0 430.499 430.499"
	 xml:space="preserve">
<g>
	<g id="Layer_7">
		<path d="M388.241,315.399c6.957,22.525-6.975,50.058-33.963,64.415c-29.737,15.806-63.967,9.587-76.438-13.891
			c-12.483-23.478,1.513-55.324,31.244-71.124c15.179-8.068,31.517-10.367,45.537-7.596l-0.674-246.313L155.534,75.548
			l-0.029,281.981c6.833,22.491-7.099,49.923-34.022,64.227c-29.737,15.8-63.958,9.6-76.438-13.878
			c-12.475-23.489,1.513-55.337,31.25-71.142c15.196-8.08,31.551-10.38,45.592-7.584l0.044-282.505L389.104,0L388.241,315.399z"/>
	</g>
</g>
</svg>